<svg width="110" height="119" viewBox="0 0 110 119" fill="none" xmlns="http://www.w3.org/2000/svg">
<g filter="url(#filter0_d)">
<path d="M20 89C20 94.5228 24.4772 99 30 99H80C85.5229 99 90 94.5228 90 89V20H30C24.4772 20 20 24.4771 20 30V89Z" fill="#196B69"/>
</g>
<path d="M67 53.5C64.8984 53.5 62.8398 53.3086 60.8242 52.9258C58.8164 52.5352 56.8281 51.9688 54.8594 51.2266C52.9375 50.4922 50.9961 49.9375 49.0352 49.5625C47.0742 49.1875 45.0625 49 43 49V48.25C45.1016 48.25 47.1562 48.4453 49.1641 48.8359C51.1797 49.2188 53.1719 49.7812 55.1406 50.5234C57.0625 51.2578 59.0039 51.8125 60.9648 52.1875C62.9258 52.5625 64.9375 52.75 67 52.75V53.5ZM43 52C45.1406 52 47.2188 52.1953 49.2344 52.5859C51.2578 52.9688 53.2695 53.5391 55.2695 54.2969C57.1758 55.0156 59.0977 55.5625 61.0352 55.9375C62.9727 56.3125 64.9609 56.5 67 56.5V58C64.8594 58 62.7773 57.8086 60.7539 57.4258C58.7383 57.0352 56.7305 56.4609 54.7305 55.7031C52.8242 54.9844 50.9023 54.4375 48.9648 54.0625C47.0273 53.6875 45.0391 53.5 43 53.5V52ZM67 63.25C64.8438 63.25 62.7383 63.0547 60.6836 62.6641C58.6289 62.2656 56.5977 61.6836 54.5898 60.918C52.7148 60.207 50.8164 59.668 48.8945 59.3008C46.9727 58.9336 45.0078 58.75 43 58.75V56.5C45.1562 56.5 47.2617 56.6992 49.3164 57.0977C51.3711 57.4961 53.4023 58.0742 55.4102 58.832C57.2852 59.5508 59.1836 60.0938 61.1055 60.4609C63.0273 60.8203 64.9922 61 67 61V63.25ZM43 61C45.1797 61 47.3086 61.2031 49.3867 61.6094C51.4648 62.0078 53.5195 62.5898 55.5508 63.3555C57.4023 64.0586 59.2773 64.5938 61.1758 64.9609C63.0742 65.3203 65.0156 65.5 67 65.5V68.5C64.8203 68.5 62.6914 68.3008 60.6133 67.9023C58.5352 67.4961 56.4805 66.9102 54.4492 66.1445C52.5977 65.4414 50.7227 64.9102 48.8242 64.5508C46.9258 64.1836 44.9844 64 43 64V61Z" fill="white"/>
<defs>
<filter id="filter0_d" x="0" y="0" width="110" height="119" filterUnits="userSpaceOnUse" color-interpolation-filters="sRGB">
<feFlood flood-opacity="0" result="BackgroundImageFix"/>
<feColorMatrix in="SourceAlpha" type="matrix" values="0 0 0 0 0 0 0 0 0 0 0 0 0 0 0 0 0 0 127 0"/>
<feOffset/>
<feGaussianBlur stdDeviation="10"/>
<feColorMatrix type="matrix" values="0 0 0 0 0 0 0 0 0 0 0 0 0 0 0 0 0 0 0.4 0"/>
<feBlend mode="normal" in2="BackgroundImageFix" result="effect1_dropShadow"/>
<feBlend mode="normal" in="SourceGraphic" in2="effect1_dropShadow" result="shape"/>
</filter>
</defs>
</svg>
