<svg width="108" height="119" viewBox="0 0 108 119" fill="none" xmlns="http://www.w3.org/2000/svg">
<g filter="url(#filter0_d)">
<path d="M88 89C88 94.5228 83.5228 99 78 99H30C24.4772 99 20 94.5228 20 89V20H78C83.5228 20 88 24.4771 88 30V89Z" fill="#196B69"/>
</g>
<path d="M61.4648 58.5C62.0898 58.5 62.6758 58.6172 63.2227 58.8516C63.7773 59.0859 64.2578 59.4062 64.6641 59.8125C65.0781 60.2109 65.4023 60.6836 65.6367 61.2305C65.8789 61.7773 66 62.3672 66 63C66 63.625 65.8828 64.2109 65.6484 64.7578C65.4141 65.2969 65.0898 65.7734 64.6758 66.1875C64.2695 66.5938 63.793 66.9141 63.2461 67.1484C62.6992 67.3828 62.1172 67.5 61.5 67.5H48C47.1719 67.5 46.3906 67.3438 45.6562 67.0312C44.9297 66.7188 44.293 66.293 43.7461 65.7539C43.207 65.207 42.7812 64.5703 42.4688 63.8438C42.1562 63.1094 42 62.3281 42 61.5C42 60.6719 42.1562 59.8945 42.4688 59.168C42.7812 58.4336 43.207 57.7969 43.7461 57.2578C44.293 56.7109 44.9297 56.2812 45.6562 55.9688C46.3906 55.6562 47.1719 55.5 48 55.5C48.3594 55.5 48.7227 55.5352 49.0898 55.6055C49.4023 55.1211 49.7617 54.6875 50.168 54.3047C50.582 53.9141 51.0312 53.5859 51.5156 53.3203C52 53.0547 52.5156 52.8516 53.0625 52.7109C53.6094 52.5703 54.1719 52.5 54.75 52.5C55.6172 52.5 56.4336 52.6523 57.1992 52.957C57.9727 53.2617 58.6562 53.6836 59.25 54.2227C59.8438 54.7539 60.332 55.3867 60.7148 56.1211C61.1055 56.8555 61.3555 57.6484 61.4648 58.5ZM61.5 66C61.9141 66 62.3008 65.9219 62.6602 65.7656C63.0273 65.6094 63.3477 65.3945 63.6211 65.1211C63.8945 64.8477 64.1094 64.5312 64.2656 64.1719C64.4219 63.8047 64.5 63.4141 64.5 63C64.5 62.5859 64.4219 62.1992 64.2656 61.8398C64.1094 61.4727 63.8945 61.1523 63.6211 60.8789C63.3477 60.6055 63.0273 60.3906 62.6602 60.2344C62.3008 60.0781 61.9141 60 61.5 60H60V59.25C60 58.5234 59.8633 57.8438 59.5898 57.2109C59.3164 56.5703 58.9414 56.0117 58.4648 55.5352C57.9883 55.0586 57.4297 54.6836 56.7891 54.4102C56.1562 54.1367 55.4766 54 54.75 54C54.2031 54 53.6758 54.082 53.168 54.2461C52.6602 54.4102 52.1914 54.6406 51.7617 54.9375C51.3398 55.2344 50.9648 55.5938 50.6367 56.0156C50.3086 56.4297 50.0469 56.8945 49.8516 57.4102C49.2656 57.1367 48.6484 57 48 57C47.375 57 46.7891 57.1172 46.2422 57.3516C45.7031 57.5859 45.2266 57.9102 44.8125 58.3242C44.4062 58.7305 44.0859 59.207 43.8516 59.7539C43.6172 60.3008 43.5 60.8828 43.5 61.5C43.5 62.125 43.6172 62.7109 43.8516 63.2578C44.0859 63.7969 44.4062 64.2734 44.8125 64.6875C45.2266 65.0938 45.7031 65.4141 46.2422 65.6484C46.7891 65.8828 47.375 66 48 66H61.5Z" fill="white"/>
<defs>
<filter id="filter0_d" x="0" y="0" width="108" height="119" filterUnits="userSpaceOnUse" color-interpolation-filters="sRGB">
<feFlood flood-opacity="0" result="BackgroundImageFix"/>
<feColorMatrix in="SourceAlpha" type="matrix" values="0 0 0 0 0 0 0 0 0 0 0 0 0 0 0 0 0 0 127 0"/>
<feOffset/>
<feGaussianBlur stdDeviation="10"/>
<feColorMatrix type="matrix" values="0 0 0 0 0 0 0 0 0 0 0 0 0 0 0 0 0 0 0.4 0"/>
<feBlend mode="normal" in2="BackgroundImageFix" result="effect1_dropShadow"/>
<feBlend mode="normal" in="SourceGraphic" in2="effect1_dropShadow" result="shape"/>
</filter>
</defs>
</svg>
