<svg width="108" height="119" viewBox="0 0 108 119" fill="none" xmlns="http://www.w3.org/2000/svg">
<g filter="url(#filter0_d)">
<path d="M88 89C88 94.5228 83.5228 99 78 99H30C24.4772 99 20 94.5228 20 89V20H78C83.5228 20 88 24.4771 88 30V89Z" fill="#196B69"/>
</g>
<path d="M61.5 62.5C61.9141 62.5 62.3008 62.5781 62.6602 62.7344C63.0273 62.8906 63.3477 63.1055 63.6211 63.3789C63.8945 63.6523 64.1094 63.9727 64.2656 64.3398C64.4219 64.6992 64.5 65.0859 64.5 65.5C64.5 65.9141 64.4219 66.3047 64.2656 66.6719C64.1094 67.0312 63.8945 67.3477 63.6211 67.6211C63.3477 67.8945 63.0273 68.1094 62.6602 68.2656C62.3008 68.4219 61.9141 68.5 61.5 68.5C61.0859 68.5 60.6953 68.4219 60.3281 68.2656C59.9688 68.1094 59.6523 67.8945 59.3789 67.6211C59.1055 67.3477 58.8906 67.0312 58.7344 66.6719C58.5781 66.3047 58.5 65.9141 58.5 65.5C58.5 64.9453 58.6367 64.4375 58.9102 63.9766L55.5234 60.5898C55.0625 60.8633 54.5547 61 54 61C53.4453 61 52.9375 60.8633 52.4766 60.5898L49.0898 63.9766C49.3633 64.4375 49.5 64.9453 49.5 65.5C49.5 65.9141 49.4219 66.3047 49.2656 66.6719C49.1094 67.0312 48.8945 67.3477 48.6211 67.6211C48.3477 67.8945 48.0273 68.1094 47.6602 68.2656C47.3008 68.4219 46.9141 68.5 46.5 68.5C46.0859 68.5 45.6953 68.4219 45.3281 68.2656C44.9688 68.1094 44.6523 67.8945 44.3789 67.6211C44.1055 67.3477 43.8906 67.0312 43.7344 66.6719C43.5781 66.3047 43.5 65.9141 43.5 65.5C43.5 65.0859 43.5781 64.6992 43.7344 64.3398C43.8906 63.9727 44.1055 63.6523 44.3789 63.3789C44.6523 63.1055 44.9688 62.8906 45.3281 62.7344C45.6953 62.5781 46.0859 62.5 46.5 62.5C47.0547 62.5 47.5625 62.6367 48.0234 62.9102L51.4102 59.5234C51.1367 59.0625 51 58.5547 51 58C51 57.4453 51.1367 56.9375 51.4102 56.4766L48.0234 53.0898C47.5625 53.3633 47.0547 53.5 46.5 53.5C46.0859 53.5 45.6953 53.4219 45.3281 53.2656C44.9688 53.1094 44.6523 52.8945 44.3789 52.6211C44.1055 52.3477 43.8906 52.0312 43.7344 51.6719C43.5781 51.3047 43.5 50.9141 43.5 50.5C43.5 50.0859 43.5781 49.6992 43.7344 49.3398C43.8906 48.9727 44.1055 48.6523 44.3789 48.3789C44.6523 48.1055 44.9688 47.8906 45.3281 47.7344C45.6953 47.5781 46.0859 47.5 46.5 47.5C46.9141 47.5 47.3008 47.5781 47.6602 47.7344C48.0273 47.8906 48.3477 48.1055 48.6211 48.3789C48.8945 48.6523 49.1094 48.9727 49.2656 49.3398C49.4219 49.6992 49.5 50.0859 49.5 50.5C49.5 51.0547 49.3633 51.5625 49.0898 52.0234L52.4766 55.4102C52.9375 55.1367 53.4453 55 54 55C54.5547 55 55.0625 55.1367 55.5234 55.4102L58.9102 52.0234C58.6367 51.5625 58.5 51.0547 58.5 50.5C58.5 50.0859 58.5781 49.6992 58.7344 49.3398C58.8906 48.9727 59.1055 48.6523 59.3789 48.3789C59.6523 48.1055 59.9688 47.8906 60.3281 47.7344C60.6953 47.5781 61.0859 47.5 61.5 47.5C61.9141 47.5 62.3008 47.5781 62.6602 47.7344C63.0273 47.8906 63.3477 48.1055 63.6211 48.3789C63.8945 48.6523 64.1094 48.9727 64.2656 49.3398C64.4219 49.6992 64.5 50.0859 64.5 50.5C64.5 50.9141 64.4219 51.3047 64.2656 51.6719C64.1094 52.0312 63.8945 52.3477 63.6211 52.6211C63.3477 52.8945 63.0273 53.1094 62.6602 53.2656C62.3008 53.4219 61.9141 53.5 61.5 53.5C60.9453 53.5 60.4375 53.3633 59.9766 53.0898L56.5898 56.4766C56.8633 56.9375 57 57.4453 57 58C57 58.5547 56.8633 59.0625 56.5898 59.5234L59.9766 62.9102C60.4375 62.6367 60.9453 62.5 61.5 62.5ZM61.5 49C61.2891 49 61.0938 49.0391 60.9141 49.1172C60.7344 49.1953 60.5742 49.3047 60.4336 49.4453C60.3008 49.5781 60.1953 49.7344 60.1172 49.9141C60.0391 50.0938 60 50.2891 60 50.5C60 50.7109 60.0391 50.9062 60.1172 51.0859C60.1953 51.2656 60.3008 51.4258 60.4336 51.5664C60.5742 51.6992 60.7344 51.8047 60.9141 51.8828C61.0938 51.9609 61.2891 52 61.5 52C61.7109 52 61.9062 51.9609 62.0859 51.8828C62.2656 51.8047 62.4219 51.6992 62.5547 51.5664C62.6953 51.4258 62.8047 51.2656 62.8828 51.0859C62.9609 50.9062 63 50.7109 63 50.5C63 50.2891 62.9609 50.0938 62.8828 49.9141C62.8047 49.7344 62.6953 49.5781 62.5547 49.4453C62.4219 49.3047 62.2656 49.1953 62.0859 49.1172C61.9062 49.0391 61.7109 49 61.5 49ZM45 50.5C45 50.7109 45.0391 50.9062 45.1172 51.0859C45.1953 51.2656 45.3008 51.4258 45.4336 51.5664C45.5742 51.6992 45.7344 51.8047 45.9141 51.8828C46.0938 51.9609 46.2891 52 46.5 52C46.7109 52 46.9062 51.9609 47.0859 51.8828C47.2656 51.8047 47.4219 51.6992 47.5547 51.5664C47.6953 51.4258 47.8047 51.2656 47.8828 51.0859C47.9609 50.9062 48 50.7109 48 50.5C48 50.2891 47.9609 50.0938 47.8828 49.9141C47.8047 49.7344 47.6953 49.5781 47.5547 49.4453C47.4219 49.3047 47.2656 49.1953 47.0859 49.1172C46.9062 49.0391 46.7109 49 46.5 49C46.2891 49 46.0938 49.0391 45.9141 49.1172C45.7344 49.1953 45.5742 49.3047 45.4336 49.4453C45.3008 49.5781 45.1953 49.7344 45.1172 49.9141C45.0391 50.0938 45 50.2891 45 50.5ZM46.5 67C46.7109 67 46.9062 66.9609 47.0859 66.8828C47.2656 66.8047 47.4219 66.6992 47.5547 66.5664C47.6953 66.4258 47.8047 66.2656 47.8828 66.0859C47.9609 65.9062 48 65.7109 48 65.5C48 65.2891 47.9609 65.0938 47.8828 64.9141C47.8047 64.7344 47.6953 64.5781 47.5547 64.4453C47.4219 64.3047 47.2656 64.1953 47.0859 64.1172C46.9062 64.0391 46.7109 64 46.5 64C46.2891 64 46.0938 64.0391 45.9141 64.1172C45.7344 64.1953 45.5742 64.3047 45.4336 64.4453C45.3008 64.5781 45.1953 64.7344 45.1172 64.9141C45.0391 65.0938 45 65.2891 45 65.5C45 65.7109 45.0391 65.9062 45.1172 66.0859C45.1953 66.2656 45.3008 66.4258 45.4336 66.5664C45.5742 66.6992 45.7344 66.8047 45.9141 66.8828C46.0938 66.9609 46.2891 67 46.5 67ZM54 59.5C54.2109 59.5 54.4062 59.4609 54.5859 59.3828C54.7656 59.3047 54.9219 59.1992 55.0547 59.0664C55.1953 58.9258 55.3047 58.7656 55.3828 58.5859C55.4609 58.4062 55.5 58.2109 55.5 58C55.5 57.7891 55.4609 57.5938 55.3828 57.4141C55.3047 57.2344 55.1953 57.0781 55.0547 56.9453C54.9219 56.8047 54.7656 56.6953 54.5859 56.6172C54.4062 56.5391 54.2109 56.5 54 56.5C53.7891 56.5 53.5938 56.5391 53.4141 56.6172C53.2344 56.6953 53.0742 56.8047 52.9336 56.9453C52.8008 57.0781 52.6953 57.2344 52.6172 57.4141C52.5391 57.5938 52.5 57.7891 52.5 58C52.5 58.2109 52.5391 58.4062 52.6172 58.5859C52.6953 58.7656 52.8008 58.9258 52.9336 59.0664C53.0742 59.1992 53.2344 59.3047 53.4141 59.3828C53.5938 59.4609 53.7891 59.5 54 59.5ZM61.5 67C61.7109 67 61.9062 66.9609 62.0859 66.8828C62.2656 66.8047 62.4219 66.6992 62.5547 66.5664C62.6953 66.4258 62.8047 66.2656 62.8828 66.0859C62.9609 65.9062 63 65.7109 63 65.5C63 65.2891 62.9609 65.0938 62.8828 64.9141C62.8047 64.7344 62.6953 64.5781 62.5547 64.4453C62.4219 64.3047 62.2656 64.1953 62.0859 64.1172C61.9062 64.0391 61.7109 64 61.5 64C61.2891 64 61.0938 64.0391 60.9141 64.1172C60.7344 64.1953 60.5742 64.3047 60.4336 64.4453C60.3008 64.5781 60.1953 64.7344 60.1172 64.9141C60.0391 65.0938 60 65.2891 60 65.5C60 65.7109 60.0391 65.9062 60.1172 66.0859C60.1953 66.2656 60.3008 66.4258 60.4336 66.5664C60.5742 66.6992 60.7344 66.8047 60.9141 66.8828C61.0938 66.9609 61.2891 67 61.5 67Z" fill="white"/>
<defs>
<filter id="filter0_d" x="0" y="0" width="108" height="119" filterUnits="userSpaceOnUse" color-interpolation-filters="sRGB">
<feFlood flood-opacity="0" result="BackgroundImageFix"/>
<feColorMatrix in="SourceAlpha" type="matrix" values="0 0 0 0 0 0 0 0 0 0 0 0 0 0 0 0 0 0 127 0"/>
<feOffset/>
<feGaussianBlur stdDeviation="10"/>
<feColorMatrix type="matrix" values="0 0 0 0 0 0 0 0 0 0 0 0 0 0 0 0 0 0 0.4 0"/>
<feBlend mode="normal" in2="BackgroundImageFix" result="effect1_dropShadow"/>
<feBlend mode="normal" in="SourceGraphic" in2="effect1_dropShadow" result="shape"/>
</filter>
</defs>
</svg>
