<svg width="11" height="24" viewBox="0 0 11 24" fill="none" xmlns="http://www.w3.org/2000/svg">
<g clip-path="url(#clip0)">
<path d="M10.47 7.78002C10.47 7.52002 10.38 7.44002 10.12 7.43002C9.54 7.43002 8.96 7.43002 8.37 7.43002C8.3 7.43002 8.23 7.42002 8.11 7.42002C8.19 7.35002 8.23 7.31002 8.28 7.28002C10.11 5.83002 9.78 2.96002 7.68 1.95002C7.09 1.66002 6.46 1.62002 5.82 1.62002C4.59 1.62002 3.35 1.62002 2.12 1.62002C1.94 1.62002 1.75 1.62002 1.57 1.57002C0.95 1.40002 0.62 0.970018 0.55 0.340018C0.53 0.150018 0.46 -0.00998244 0.25 1.75586e-05C0.03 0.0200176 0 0.200018 0 0.390018C0.01 1.87002 0.02 3.35002 0.03 4.82002C0.04 6.23002 0.71 7.21002 2.01 7.76002C2.13 7.81002 2.17 7.87002 2.17 8.00002C2.16 8.28002 2.16 8.55002 2.17 8.83002C2.18 9.66002 2.6 10.22 3.38 10.47C3.43 10.49 3.48 10.51 3.54 10.53C3.54 10.73 3.54 10.92 3.54 11.11C3.55 11.43 3.68 11.71 3.93 11.91C4.07 12.02 4.12 12.15 4.15 12.32C4.4 13.77 4.65 15.21 4.9 16.66C5.28 18.82 5.65 20.98 6.04 23.14C6.06 23.27 6.18 23.39 6.26 23.52H6.44C6.5 23.4 6.57 23.28 6.6 23.16C6.64 23.01 6.65 22.86 6.68 22.71C7.27 19.34 7.86 15.97 8.44 12.6C8.49 12.31 8.53 12.05 8.79 11.85C8.95 11.73 9.03 11.48 9.09 11.28C9.14 11.1 9.13 10.9 9.13 10.71C9.13 10.57 9.17 10.51 9.3 10.47C10.03 10.24 10.45 9.68002 10.46 8.92002C10.47 8.53002 10.47 8.16002 10.47 7.78002Z" fill="#196B69"/>
<path d="M3.09004 9.63C2.58004 9.16 2.84004 8.62 2.78004 8.11C2.78004 8.08 2.87004 8.01 2.92004 8.01C3.14004 8 3.36004 8.01 3.59004 8C3.72004 8 3.74004 8.08 3.75004 8.2C3.76004 8.6 3.76004 9.01 3.80004 9.41C3.81004 9.58 3.89004 9.74 3.94004 9.94C3.60004 9.94 3.36004 9.87 3.09004 9.63Z" fill="white"/>
<path d="M4.54005 11.55C4.50005 11.57 4.42005 11.56 4.38005 11.53C4.16005 11.39 4.08005 11.18 4.11005 10.88C4.14005 10.79 4.00005 10.58 4.29005 10.56C4.51005 10.55 4.59005 10.61 4.58005 10.84C4.57005 11.02 4.60005 11.2 4.60005 11.39C4.60005 11.45 4.58005 11.52 4.54005 11.55Z" fill="white"/>
<path d="M5.79996 7.38997C4.77996 7.37997 3.75996 7.39997 2.74996 7.35997C1.78996 7.31997 0.809956 6.38997 0.659956 5.37997C0.589956 4.91997 0.609956 4.43997 0.579956 3.96997C1.19996 4.53997 1.86996 4.80997 2.66996 4.77997C3.29996 4.75997 3.92996 4.76997 4.54996 4.76997C5.39996 4.77997 5.98996 5.36997 6.00996 6.21997C6.01996 6.53997 6.00996 6.85997 6.00996 7.17997C6.00996 7.32997 5.94996 7.38997 5.79996 7.38997Z" fill="#E0EBEB"/>
<path d="M6.62995 7.35999C6.62995 7.17999 6.63995 7.02999 6.62995 6.87999C6.59995 6.48999 6.62995 6.07999 6.53995 5.69999C6.31995 4.74999 5.51995 4.16999 4.49995 4.15999C3.74995 4.14999 3.00995 4.16999 2.26995 4.14999C1.41995 4.11999 0.649953 3.34999 0.599953 2.49999C0.579953 2.23999 0.599953 1.97999 0.599953 1.67999C0.719953 1.75999 0.799953 1.81999 0.889953 1.86999C1.26995 2.10999 1.68995 2.16999 2.11995 2.16999C3.41995 2.16999 4.71995 2.16999 6.02995 2.16999C6.60995 2.16999 7.17995 2.23999 7.67995 2.55999C8.60995 3.15999 9.03995 4.02999 8.89995 5.11999C8.75995 6.19999 8.12995 6.90999 7.10995 7.26999C6.96995 7.31999 6.81995 7.32999 6.62995 7.35999Z" fill="#E0EBEB"/>
<path d="M8.56996 10.79C8.54996 11.09 8.49996 11.36 8.22996 11.54C8.15996 11.58 8.08996 11.61 7.97996 11.65C7.96996 11.57 7.95996 11.53 7.96996 11.51C8.06996 11.27 8.05996 11.03 8.03996 10.78C8.01996 10.53 8.18996 10.57 8.33996 10.56C8.51996 10.56 8.57996 10.62 8.56996 10.79Z" fill="white"/>
<path d="M9.89995 8.49C9.89995 8.74 9.88995 9 9.82995 9.24C9.71995 9.67 9.15995 9.99 8.69995 9.92C8.77995 9.63 8.86995 9.35 8.90995 9.07C8.93995 8.9 8.86995 8.72 8.86995 8.55C8.85995 8 8.86995 8 9.40995 8C9.97995 8.01 9.89995 7.93 9.89995 8.49Z" fill="white"/>
</g>
<defs>
<clipPath id="clip0">
<rect width="10.47" height="23.52" fill="white"/>
</clipPath>
</defs>
</svg>
