<svg width="110" height="119" viewBox="0 0 110 119" fill="none" xmlns="http://www.w3.org/2000/svg">
<g filter="url(#filter0_d)">
<path d="M20 89C20 94.5228 24.4772 99 30 99H80C85.5229 99 90 94.5228 90 89V20H30C24.4772 20 20 24.4771 20 30V89Z" fill="#196B69"/>
</g>
<path d="M67 53.8516V64.375C67 64.7734 66.9102 65.1328 66.7305 65.4531C66.5586 65.7734 66.332 66.0508 66.0508 66.2852C65.7695 66.5117 65.4492 66.6875 65.0898 66.8125C64.7305 66.9375 64.3672 67 64 67C63.6328 67 63.2695 66.9375 62.9102 66.8125C62.5508 66.6875 62.2305 66.5117 61.9492 66.2852C61.668 66.0508 61.4375 65.7734 61.2578 65.4531C61.0859 65.1328 61 64.7734 61 64.375C61 63.9766 61.0859 63.6172 61.2578 63.2969C61.4375 62.9688 61.668 62.6914 61.9492 62.4648C62.2305 62.2383 62.5508 62.0625 62.9102 61.9375C63.2695 61.8125 63.6328 61.75 64 61.75C64.5156 61.75 65.0156 61.8711 65.5 62.1133V55.7734L58 57.6484V65.875C58 66.2734 57.9102 66.6328 57.7305 66.9531C57.5586 67.2734 57.332 67.5508 57.0508 67.7852C56.7695 68.0117 56.4492 68.1875 56.0898 68.3125C55.7305 68.4375 55.3672 68.5 55 68.5C54.6328 68.5 54.2695 68.4375 53.9102 68.3125C53.5508 68.1875 53.2305 68.0117 52.9492 67.7852C52.668 67.5508 52.4375 67.2734 52.2578 66.9531C52.0859 66.6328 52 66.2734 52 65.875C52 65.4766 52.0859 65.1172 52.2578 64.7969C52.4375 64.4688 52.668 64.1914 52.9492 63.9648C53.2305 63.7383 53.5508 63.5625 53.9102 63.4375C54.2695 63.3125 54.6328 63.25 55 63.25C55.5156 63.25 56.0156 63.3711 56.5 63.6133V56.4766L67 53.8516ZM55 67C55.1562 67 55.3203 66.9766 55.4922 66.9297C55.6719 66.8828 55.8359 66.8125 55.9844 66.7188C56.1328 66.625 56.2539 66.5078 56.3477 66.3672C56.4492 66.2266 56.5 66.0625 56.5 65.875C56.5 65.6875 56.4492 65.5234 56.3477 65.3828C56.2539 65.2422 56.1328 65.125 55.9844 65.0312C55.8359 64.9375 55.6719 64.8672 55.4922 64.8203C55.3203 64.7734 55.1562 64.75 55 64.75C54.8438 64.75 54.6758 64.7734 54.4961 64.8203C54.3242 64.8672 54.1641 64.9375 54.0156 65.0312C53.8672 65.125 53.7422 65.2422 53.6406 65.3828C53.5469 65.5234 53.5 65.6875 53.5 65.875C53.5 66.0625 53.5469 66.2266 53.6406 66.3672C53.7422 66.5078 53.8672 66.625 54.0156 66.7188C54.1641 66.8125 54.3242 66.8828 54.4961 66.9297C54.6758 66.9766 54.8438 67 55 67ZM64 65.5C64.1562 65.5 64.3203 65.4766 64.4922 65.4297C64.6719 65.3828 64.8359 65.3125 64.9844 65.2188C65.1328 65.125 65.2539 65.0078 65.3477 64.8672C65.4492 64.7266 65.5 64.5625 65.5 64.375C65.5 64.1875 65.4492 64.0234 65.3477 63.8828C65.2539 63.7422 65.1328 63.625 64.9844 63.5312C64.8359 63.4375 64.6719 63.3672 64.4922 63.3203C64.3203 63.2734 64.1562 63.25 64 63.25C63.8438 63.25 63.6758 63.2734 63.4961 63.3203C63.3242 63.3672 63.1641 63.4375 63.0156 63.5312C62.8672 63.625 62.7422 63.7422 62.6406 63.8828C62.5469 64.0234 62.5 64.1875 62.5 64.375C62.5 64.5625 62.5469 64.7266 62.6406 64.8672C62.7422 65.0078 62.8672 65.125 63.0156 65.2188C63.1641 65.3125 63.3242 65.3828 63.4961 65.4297C63.6758 65.4766 63.8438 65.5 64 65.5ZM47.5 53.5H46V52H47.5V53.5ZM46 55H47.5V56.5H46V55ZM56.5 52H58V53.5H56.5V52ZM55 61H43V47.5H61V53.5L59.5 53.875V49H58V50.5H56.5V49H47.5V50.5H46V49H44.5V59.5H46V58H47.5V59.5H55V61Z" fill="white"/>
<defs>
<filter id="filter0_d" x="0" y="0" width="110" height="119" filterUnits="userSpaceOnUse" color-interpolation-filters="sRGB">
<feFlood flood-opacity="0" result="BackgroundImageFix"/>
<feColorMatrix in="SourceAlpha" type="matrix" values="0 0 0 0 0 0 0 0 0 0 0 0 0 0 0 0 0 0 127 0"/>
<feOffset/>
<feGaussianBlur stdDeviation="10"/>
<feColorMatrix type="matrix" values="0 0 0 0 0 0 0 0 0 0 0 0 0 0 0 0 0 0 0.4 0"/>
<feBlend mode="normal" in2="BackgroundImageFix" result="effect1_dropShadow"/>
<feBlend mode="normal" in="SourceGraphic" in2="effect1_dropShadow" result="shape"/>
</filter>
</defs>
</svg>
