<svg width="24" height="24" viewBox="0 0 24 24" fill="none" xmlns="http://www.w3.org/2000/svg">
<g clip-path="url(#clip0)">
<path d="M5.21545 12.8954V16.6569C5.21545 16.6569 8.82247 15.1542 12.0206 15.1542C15.2188 15.1542 18.8265 16.6569 18.8265 16.6569V12.8428C18.8265 12.8428 15.3853 11.0228 11.9674 11.0228C8.55089 11.0213 5.21545 12.8954 5.21545 12.8954Z" fill="#196B69"/>
<path d="M22.6474 11.9996L24.0007 11.2719L22.6474 10.5225V10.1669C22.6474 10.1669 23.0285 8.23431 20.8626 9.24485C20.7523 9.30486 20.6931 9.36563 20.6691 9.4249L11.7371 4.47125L0 11.1886L4.43225 13.2022V12.5488C4.43225 12.5488 8.15104 10.4609 11.9629 10.4609C15.7739 10.4609 19.6098 12.4903 19.6098 12.4903V13.6313L22.057 12.317C22.057 13.8391 22.057 17.0951 22.057 17.6382H21.2422V19.5295L22.3255 18.7808L23.5281 19.5295V17.6375H22.6474V11.9996ZM22.0562 9.83826C22.0562 9.88403 22.0562 10.0101 22.0562 10.1946L21.342 9.7985C21.6023 9.62595 22.0562 9.38664 22.0562 9.83826ZM21.8146 11.9253C21.4988 11.9253 21.2415 11.6695 21.2415 11.3537C21.2415 11.0378 21.4988 10.7813 21.8146 10.7813C22.1312 10.7813 22.387 11.0378 22.387 11.3537C22.387 11.6695 22.1312 11.9253 21.8146 11.9253Z" fill="#196B69"/>
</g>
<defs>
<clipPath id="clip0">
<rect width="24" height="24.0008" fill="white"/>
</clipPath>
</defs>
</svg>
