<svg width="24" height="22" viewBox="0 0 24 22" fill="none" xmlns="http://www.w3.org/2000/svg">
<path d="M24 10.75L19.4062 13.0469L24 15.3438L12 21.3438L0 15.3438L4.59375 13.0469L0 10.75L4.5 8.5L0 6.25L12 0.25L24 6.25L19.5 8.5L24 10.75ZM3.35156 6.25C4.80469 6.97656 6.24609 7.69531 7.67578 8.40625C9.11328 9.11719 10.5547 9.83984 12 10.5742C13.4453 9.83984 14.8828 9.11719 16.3125 8.40625C17.75 7.69531 19.1953 6.97656 20.6484 6.25L12 1.92578L3.35156 6.25ZM17.7305 13.8789L12 16.75L6.26953 13.8789L3.35156 15.3438L12 19.668L20.6484 15.3438L17.7305 13.8789ZM12 15.0742C13.4531 14.3477 14.8945 13.625 16.3242 12.9062C17.7539 12.1875 19.1953 11.4688 20.6484 10.75L17.8242 9.33203C16.8477 9.82422 15.875 10.3125 14.9062 10.7969C13.9453 11.2734 12.9766 11.7578 12 12.25C11.0234 11.7578 10.0508 11.2734 9.08203 10.7969C8.12109 10.3125 7.15234 9.82422 6.17578 9.33203L3.35156 10.75C4.80469 11.4688 6.24609 12.1875 7.67578 12.9062C9.10547 13.625 10.5469 14.3477 12 15.0742Z" fill="white"/>
</svg>
