<svg width="108" height="119" viewBox="0 0 108 119" fill="none" xmlns="http://www.w3.org/2000/svg">
<g filter="url(#filter0_d)">
<path d="M88 89C88 94.5228 83.5228 99 78 99H30C24.4772 99 20 94.5228 20 89V20H78C83.5228 20 88 24.4771 88 30V89Z" fill="#196B69"/>
</g>
<path d="M63 55C63.4062 55 63.793 55.082 64.1602 55.2461C64.5273 55.4023 64.8438 55.6172 65.1094 55.8906C65.3828 56.1562 65.5977 56.4727 65.7539 56.8398C65.918 57.207 66 57.5938 66 58C66 58.4141 65.918 58.8047 65.7539 59.1719C65.5977 59.5312 65.3828 59.8477 65.1094 60.1211C64.8438 60.3867 64.5273 60.6016 64.1602 60.7656C63.793 60.9219 63.4062 61 63 61H57.75L53.25 70H48L51 61H48L47.25 62.5H42L43.5 58L42 53.5H47.25L48 55H51L48 46H53.25L57.75 55H63ZM63 59.5C63.2109 59.5 63.4062 59.4609 63.5859 59.3828C63.7656 59.3047 63.9219 59.1992 64.0547 59.0664C64.1953 58.9258 64.3047 58.7656 64.3828 58.5859C64.4609 58.4062 64.5 58.2109 64.5 58C64.5 57.7891 64.4609 57.5938 64.3828 57.4141C64.3047 57.2344 64.1953 57.0781 64.0547 56.9453C63.9219 56.8047 63.7656 56.6953 63.5859 56.6172C63.4062 56.5391 63.2109 56.5 63 56.5H56.8242C56.0508 55 55.2969 53.5039 54.5625 52.0117C53.8281 50.5117 53.082 49.0078 52.3242 47.5H50.0859C50.5859 49.0078 51.082 50.5117 51.5742 52.0117C52.0664 53.5039 52.5703 55 53.0859 56.5H47.0742L46.3242 55H44.0859C44.25 55.5 44.4102 56 44.5664 56.5C44.7305 57 44.9023 57.5 45.082 58C44.9023 58.5 44.7305 59 44.5664 59.5C44.4102 60 44.25 60.5 44.0859 61H46.3242L47.0742 59.5H53.0859C52.5703 61 52.0664 62.5 51.5742 64C51.082 65.4922 50.5859 66.9922 50.0859 68.5H52.3242C53.082 66.9922 53.8281 65.4922 54.5625 64C55.2969 62.5 56.0508 61 56.8242 59.5H63Z" fill="white"/>
<defs>
<filter id="filter0_d" x="0" y="0" width="108" height="119" filterUnits="userSpaceOnUse" color-interpolation-filters="sRGB">
<feFlood flood-opacity="0" result="BackgroundImageFix"/>
<feColorMatrix in="SourceAlpha" type="matrix" values="0 0 0 0 0 0 0 0 0 0 0 0 0 0 0 0 0 0 127 0"/>
<feOffset/>
<feGaussianBlur stdDeviation="10"/>
<feColorMatrix type="matrix" values="0 0 0 0 0 0 0 0 0 0 0 0 0 0 0 0 0 0 0.4 0"/>
<feBlend mode="normal" in2="BackgroundImageFix" result="effect1_dropShadow"/>
<feBlend mode="normal" in="SourceGraphic" in2="effect1_dropShadow" result="shape"/>
</filter>
</defs>
</svg>
