<svg width="24" height="21" viewBox="0 0 24 21" fill="none" xmlns="http://www.w3.org/2000/svg">
<path d="M16.5 18L18 16.5V21H0V6H1.5V19.5H16.5V18ZM15 12C14 12 13.0195 12.1016 12.0586 12.3047C11.1055 12.5 10.1836 12.793 9.29297 13.1836C8.40234 13.5664 7.55078 14.0391 6.73828 14.6016C5.93359 15.1562 5.1875 15.7891 4.5 16.5V15C4.5 14.0312 4.625 13.1016 4.875 12.2109C5.125 11.3125 5.47656 10.4766 5.92969 9.70312C6.39062 8.92188 6.9375 8.21484 7.57031 7.58203C8.21094 6.94141 8.91797 6.39453 9.69141 5.94141C10.4727 5.48047 11.3086 5.125 12.1992 4.875C13.0977 4.625 14.0312 4.5 15 4.5V0L23.25 8.25L15 16.5V12ZM16.5 6C16.0234 6 15.5781 6.00391 15.1641 6.01172C14.75 6.01172 14.3438 6.03125 13.9453 6.07031C13.5547 6.10937 13.1602 6.17969 12.7617 6.28125C12.3633 6.375 11.9414 6.51562 11.4961 6.70312C10.8164 6.98438 10.1836 7.34375 9.59766 7.78125C9.01953 8.21875 8.5 8.71875 8.03906 9.28125C7.58594 9.83594 7.19922 10.4414 6.87891 11.0977C6.56641 11.7461 6.33594 12.4297 6.1875 13.1484C7.5 12.2734 8.90234 11.6133 10.3945 11.168C11.8867 10.7227 13.4219 10.5 15 10.5H16.5V12.8789L21.1289 8.25L16.5 3.62109V6Z" fill="white"/>
</svg>
