<svg width="24" height="24" viewBox="0 0 24 24" fill="none" xmlns="http://www.w3.org/2000/svg">
<path d="M12 0C9.67364 0 7.78125 1.93927 7.78125 4.26562C7.78125 6.59198 9.67364 8.48438 12 8.48438C14.3264 8.48438 16.2188 6.59198 16.2188 4.26562C16.2188 1.93927 14.3264 0 12 0Z" fill="#196B69"/>
<path d="M13.4062 8.48438H12H10.5937C9.60196 8.48438 8.6436 8.74073 7.77234 9.17686C9.25214 9.57614 10.6454 10.1512 12 10.9287C13.3546 10.1512 14.7479 9.57614 16.2277 9.17686C15.3564 8.74073 14.398 8.48438 13.4062 8.48438Z" fill="#196B69"/>
<path d="M22.5938 12.7031C21.8171 12.7031 21.1875 13.3327 21.1875 14.1094V16.9219C21.1875 17.6985 21.8171 18.3281 22.5938 18.3281C23.3704 18.3281 24 17.6985 24 16.9219V14.1094C24 13.3327 23.3704 12.7031 22.5938 12.7031Z" fill="#196B69"/>
<path d="M1.40625 12.7031C0.629578 12.7031 0 13.3327 0 14.1094V16.9219C0 17.6985 0.629578 18.3281 1.40625 18.3281C2.18292 18.3281 2.8125 17.6985 2.8125 16.9219V14.1094C2.8125 13.3327 2.18292 12.7031 1.40625 12.7031Z" fill="#196B69"/>
<path d="M2.10938 9.89062C1.72073 9.89062 1.40625 10.2051 1.40625 10.5938V11.2969C2.95739 11.2969 4.21875 12.5582 4.21875 14.1094V16.9219C4.21875 18.473 2.95739 19.7344 1.40625 19.7344V20.4375C1.40625 20.8261 1.72073 21.1406 2.10938 21.1406C5.71411 21.1406 8.59641 22.279 11.2969 24V12.1685C8.58422 10.6132 5.66733 9.89062 2.10938 9.89062Z" fill="#196B69"/>
<path d="M22.5938 11.2969V10.5938C22.5938 10.2051 22.2793 9.89062 21.8906 9.89062C18.3327 9.89062 15.4158 10.6132 12.7031 12.1685V24C15.4036 22.279 18.2859 21.1406 21.8906 21.1406C22.2793 21.1406 22.5938 20.8261 22.5938 20.4375V19.7344C21.0426 19.7344 19.7812 18.473 19.7812 16.9219V14.1094C19.7812 12.5582 21.0426 11.2969 22.5938 11.2969Z" fill="#196B69"/>
</svg>
